<?xml version="1.0" encoding="utf-8"?>
<!-- Generator: Adobe Illustrator 28.2.0, SVG Export Plug-In . SVG Version: 6.00 Build 0)  -->
<svg version="1.1" id="Layer_4" xmlns="http://www.w3.org/2000/svg" xmlns:xlink="http://www.w3.org/1999/xlink" x="0px" y="0px"
	 viewBox="0 0 195.5 221.6" style="enable-background:new 0 0 195.5 221.6;" xml:space="preserve">
<style type="text/css">
	.st0{fill:url(#SVGID_1_);}
	.st1{fill:url(#SVGID_00000168096266753566287220000013775110240337789848_);}
	.st2{fill:url(#SVGID_00000099645867179952717630000008966977956352119716_);}
	.st3{fill:#FFF86A;}
	.st4{fill:url(#SVGID_00000169557372700011930770000005181993092502672282_);}
	.st5{fill:#FDF24D;}
	.st6{fill:url(#SVGID_00000083800983126394209490000005567137531192552886_);}
	.st7{fill:url(#SVGID_00000145768492186771027570000004313511407935477383_);}
	.st8{fill:url(#SVGID_00000138547875255768972040000017674090537822472077_);}
	.st9{fill:url(#SVGID_00000047040392999329065220000009785715355000790449_);}
	.st10{fill:url(#SVGID_00000044858549894982892020000000282764843467685036_);}
	.st11{fill:url(#SVGID_00000106120911609854734940000005716888071253370287_);}
	.st12{fill:url(#SVGID_00000181056398747848091420000004361454201318726558_);}
	.st13{fill:url(#SVGID_00000109716030273781147710000010509683857065599162_);}
	.st14{fill:url(#SVGID_00000154402405982422001970000017590669793509437593_);}
	.st15{fill:url(#SVGID_00000110465625548256359390000018050898273710655923_);}
	.st16{fill:url(#SVGID_00000146489903652192589950000007815694731355165585_);}
	.st17{fill:url(#SVGID_00000103246086915238572600000016465753903563626162_);}
	.st18{fill:#0D4900;}
	.st19{fill:url(#SVGID_00000099640084225185125890000004554550680613746069_);}
	.st20{fill:#3E0008;}
	.st21{fill:url(#SVGID_00000124142059691212094310000006801260231511544759_);}
	.st22{fill:url(#SVGID_00000064318100363837124860000000458148062600272284_);}
	.st23{fill:#930018;}
	.st24{fill:#C4031D;}
	.st25{fill:url(#SVGID_00000009583060859229572530000017428298561215770502_);}
	.st26{fill:#840011;}
	.st27{fill:url(#SVGID_00000129913946865318175450000014595573139943613065_);}
	.st28{fill:#7BA61F;}
	.st29{fill:url(#SVGID_00000002379359687297078560000005623218111068686253_);}
	.st30{fill:url(#SVGID_00000005264721739497637110000000109640075748708007_);}
	.st31{fill:#FDEA38;}
	.st32{fill:#FEEE41;}
</style>
<g id="Color_outline">
	
		<linearGradient id="SVGID_1_" gradientUnits="userSpaceOnUse" x1="92.1" y1="1024.04" x2="92.1" y2="1077.63" gradientTransform="matrix(1 0 0 1 0 -856)">
		<stop  offset="0.2646" style="stop-color:#EEC252;stop-opacity:0"/>
		<stop  offset="0.73" style="stop-color:#EFC252"/>
		<stop  offset="0.78" style="stop-color:#F1C451"/>
		<stop  offset="0.79" style="stop-color:#F1C451"/>
		<stop  offset="1" style="stop-color:#F1C451"/>
	</linearGradient>
	<polygon class="st0" points="184.2,178.5 180.3,218.1 32.7,221.6 1.6,171 0,168.5 8.1,166.9 36.9,213.8 173.3,210.5 176.7,175.7 	
		"/>
	
		<linearGradient id="SVGID_00000015347080988236126160000010341521533161356987_" gradientUnits="userSpaceOnUse" x1="100.1749" y1="987.2941" x2="4.8349" y2="867.054" gradientTransform="matrix(1 0 0 1 0 -856)">
		<stop  offset="0.65" style="stop-color:#F65B5B;stop-opacity:0"/>
		<stop  offset="0.86" style="stop-color:#F85B5B"/>
		<stop  offset="0.96" style="stop-color:#F65B5B"/>
	</linearGradient>
	<polygon style="fill:url(#SVGID_00000015347080988236126160000010341521533161356987_);" points="97.7,14 91.8,20.2 90.1,15.6 
		33.9,17.1 15.1,126.3 6.5,130.6 27.3,9.6 95.3,7.7 	"/>
	
		<linearGradient id="SVGID_00000163773605385962613360000000707045828160737452_" gradientUnits="userSpaceOnUse" x1="147.0638" y1="943.3774" x2="235.4938" y2="873.1173" gradientTransform="matrix(1 0 0 1 0 -856)">
		<stop  offset="0" style="stop-color:#FDFFF9;stop-opacity:5.000000e-02"/>
		<stop  offset="0.11" style="stop-color:#FCFFF6;stop-opacity:6.000000e-02"/>
		<stop  offset="0.16" style="stop-color:#F8FFEF;stop-opacity:9.000000e-02"/>
		<stop  offset="0.2" style="stop-color:#F3FFE2;stop-opacity:0.14"/>
		<stop  offset="0.24" style="stop-color:#EBFFCF;stop-opacity:0.21"/>
		<stop  offset="0.27" style="stop-color:#E1FFB7;stop-opacity:0.31"/>
		<stop  offset="0.3" style="stop-color:#D5FF9A;stop-opacity:0.42"/>
		<stop  offset="0.32" style="stop-color:#CEFF88;stop-opacity:0.5"/>
		<stop  offset="0.41" style="stop-color:#CEFF70;stop-opacity:0.64"/>
		<stop  offset="0.51" style="stop-color:#CEFF5A;stop-opacity:0.77"/>
		<stop  offset="0.62" style="stop-color:#CEFF49;stop-opacity:0.87"/>
		<stop  offset="0.72" style="stop-color:#CEFF3C;stop-opacity:0.94"/>
		<stop  offset="0.84" style="stop-color:#CEFF35;stop-opacity:0.99"/>
		<stop  offset="0.96" style="stop-color:#CEFF33"/>
	</linearGradient>
	<polygon style="fill:url(#SVGID_00000163773605385962613360000000707045828160737452_);" points="195.5,62.8 184.8,172 
		177.4,167.7 187.6,63.4 173.7,7.9 116.7,9.8 109.9,2.3 173.5,0.2 179.7,0 	"/>
</g>
<path id="Black_outline" d="M173.7,7.9l-57.1,1.8l-7.4,55.9L90.1,15.5l-56.2,1.6L8.1,166.9l0,0l28.8,46.8l136.3-3.2l14.4-147.1
	C187.7,63.4,173.7,7.9,173.7,7.9z M164.6,201.2l-122.3,2.9L18.1,165l10.7-62.3L32,84.5l9-52.3l1-5.7L57.4,26l26.1-0.8L101.1,71
	l-6.6,53l16.8-0.3l2.5-19l2.5-19.1l8.8-66.5l41.2-1.4L178,64.1L164.6,201.2L164.6,201.2z"/>
<g id="Light_base">
	<polygon class="st3" points="82.7,157 88.9,163.3 22.8,164.9 22.8,164.9 18.1,165 25.6,158.1 	"/>
	<polygon class="st3" points="150.8,161.8 111.1,162.8 104.9,156.6 145.2,155.8 	"/>
	
		<linearGradient id="SVGID_00000045607710641477281510000003023447956710514574_" gradientUnits="userSpaceOnUse" x1="91.35" y1="1022.75" x2="91.35" y2="1058.41" gradientTransform="matrix(1 0 0 1 0 -856)">
		<stop  offset="0" style="stop-color:#A5500A"/>
		<stop  offset="1" style="stop-color:#E6AE15"/>
	</linearGradient>
	<polygon style="fill:url(#SVGID_00000045607710641477281510000003023447956710514574_);" points="164.6,201.2 42.3,204.1 18.1,165 
		22.8,164.9 44.8,199.3 162.9,196.6 	"/>
	<polygon class="st5" points="116.6,129.9 78.6,130.6 72.4,124.5 94.5,123.9 111.2,123.6 	"/>
	
		<linearGradient id="SVGID_00000010307718182555674290000003854105411463949984_" gradientUnits="userSpaceOnUse" x1="50.8" y1="1019.0686" x2="50.8" y2="883.3816" gradientTransform="matrix(1 0 0 1 0 -856)">
		<stop  offset="0" style="stop-color:#FC0D75"/>
		<stop  offset="1" style="stop-color:#E00013"/>
	</linearGradient>
	<path style="fill:url(#SVGID_00000010307718182555674290000003854105411463949984_);" d="M42,26.5C34,72.7,26.1,118.8,18.1,165
		l7.5-6.9C32.8,116.3,40,74.5,47.2,32.7c9.7-0.3,19.4-0.6,29.1-0.9c2.4-2.2,4.8-4.4,7.2-6.6C69.7,25.6,55.8,26.1,42,26.5z"/>
	
		<linearGradient id="SVGID_00000161606675750988566280000006215007137709613953_" gradientUnits="userSpaceOnUse" x1="72.9" y1="974.7249" x2="72.9" y2="884.5972" gradientTransform="matrix(1 0 0 1 0 -856)">
		<stop  offset="0" style="stop-color:#BF0022"/>
		<stop  offset="1" style="stop-color:#7F000F"/>
	</linearGradient>
	<path style="fill:url(#SVGID_00000161606675750988566280000006215007137709613953_);" d="M76.3,31.8c-4.1,28.2-8.1,56.5-12,84.7
		c-0.7,4.8-1.3,9.7-2,14.5c2.4-2.2,4.8-4.3,7.2-6.5c0.1-0.8,0.3-1.7,0.4-2.5c5.2-32.4,9.7-64.7,13.6-96.8
		C81.1,27.4,78.7,29.6,76.3,31.8z"/>
	
		<linearGradient id="SVGID_00000003817455992080390980000002311646119301076903_" gradientUnits="userSpaceOnUse" x1="138.75" y1="987.71" x2="138.75" y2="876.84" gradientTransform="matrix(1 0 0 1 0 -856)">
		<stop  offset="6.000000e-02" style="stop-color:#EAF94C"/>
		<stop  offset="1" style="stop-color:#8BDF0F"/>
	</linearGradient>
	<polygon style="fill:url(#SVGID_00000003817455992080390980000002311646119301076903_);" points="125.1,19.1 116.3,85.6 
		113.7,104.6 111.2,123.6 116.6,129.9 119.2,110.2 121.8,91 130.5,25.2 159.3,24.3 166.3,17.7 	"/>
	
		<linearGradient id="SVGID_00000161590846754498314460000008757595086874129599_" gradientUnits="userSpaceOnUse" x1="155.75" y1="1017.26" x2="155.75" y2="877.31" gradientTransform="matrix(1 0 0 1 0 -856)">
		<stop  offset="6.000000e-02" style="stop-color:#C5DA3A"/>
		<stop  offset="1" style="stop-color:#4E9709"/>
	</linearGradient>
	<polygon style="fill:url(#SVGID_00000161590846754498314460000008757595086874129599_);" points="159.3,24.3 149.2,118.1 
		147,138.4 145.2,155.8 150.8,161.8 152.7,144.1 154.9,123.7 166.3,17.7 	"/>
</g>
<g id="Dark_base">
	<g>
		
			<linearGradient id="SVGID_00000064318401182653061460000001372451089979072661_" gradientUnits="userSpaceOnUse" x1="100.4" y1="190.3462" x2="100.4" y2="28.9442">
			<stop  offset="0" style="stop-color:#EE0533"/>
			<stop  offset="1" style="stop-color:#EB032A"/>
		</linearGradient>
		<polygon style="fill:url(#SVGID_00000064318401182653061460000001372451089979072661_);" points="162.9,196.6 44.8,199.3 
			22.8,164.9 88.9,163.3 111.1,162.8 150.8,161.8 		"/>
		
			<linearGradient id="SVGID_00000107571467803684639040000009068401130828397990_" gradientUnits="userSpaceOnUse" x1="100.4" y1="190.3462" x2="100.4" y2="28.9442">
			<stop  offset="0" style="stop-color:#EE0533"/>
			<stop  offset="1" style="stop-color:#EB032A"/>
		</linearGradient>
		<path style="fill:url(#SVGID_00000107571467803684639040000009068401130828397990_);" d="M47.2,32.7
			C40,74.5,32.8,116.3,25.6,158.1l21.3-19.6l8.6-2.3c2.3-1.7,4.5-3.5,6.8-5.2c4.7-33.1,9.3-66.1,14-99.2
			C66.6,32.1,56.9,32.4,47.2,32.7z"/>
		
			<linearGradient id="SVGID_00000004508672844426990790000017340215949045632396_" gradientUnits="userSpaceOnUse" x1="100.4" y1="190.3462" x2="100.4" y2="28.9442">
			<stop  offset="0" style="stop-color:#EE0533"/>
			<stop  offset="1" style="stop-color:#EB032A"/>
		</linearGradient>
		<polygon style="fill:url(#SVGID_00000004508672844426990790000017340215949045632396_);" points="178,64.1 164.6,201.2 
			162.9,196.6 150.8,161.8 152.7,144.1 154.9,123.7 166.3,17.7 		"/>
		
			<linearGradient id="SVGID_00000085972443558658782030000011883938409035237515_" gradientUnits="userSpaceOnUse" x1="100.4" y1="190.3462" x2="100.4" y2="28.9442">
			<stop  offset="0" style="stop-color:#EE0533"/>
			<stop  offset="1" style="stop-color:#EB032A"/>
		</linearGradient>
		<polygon style="fill:url(#SVGID_00000085972443558658782030000011883938409035237515_);" points="130.5,25.2 121.8,91 
			119.2,110.2 116.6,129.9 134.3,136.1 137.8,147.3 145.2,155.8 147,138.4 149.2,118.1 159.3,24.3 		"/>
		
			<linearGradient id="SVGID_00000008150852536987236960000012835903217708631732_" gradientUnits="userSpaceOnUse" x1="100.4" y1="190.3462" x2="100.4" y2="28.9442">
			<stop  offset="0" style="stop-color:#EE0533"/>
			<stop  offset="1" style="stop-color:#EB032A"/>
		</linearGradient>
		<path style="fill:url(#SVGID_00000008150852536987236960000012835903217708631732_);" d="M101.1,71c-2.2,17.6-4.4,35.3-6.6,52.9
			c-8.3,0.2-16.7,0.4-25,0.6c4.7-33.1,9.3-66.2,14-99.3C89.4,40.5,95.2,55.7,101.1,71z"/>
		
			<linearGradient id="SVGID_00000176751097769444647130000006613001780179176365_" gradientUnits="userSpaceOnUse" x1="100.4" y1="190.3462" x2="100.4" y2="28.9442">
			<stop  offset="0" style="stop-color:#EE0533"/>
			<stop  offset="1" style="stop-color:#EB032A"/>
		</linearGradient>
		<polygon style="fill:url(#SVGID_00000176751097769444647130000006613001780179176365_);" points="137.8,147.3 134.3,136.1 
			116.6,129.9 78.6,130.6 62.3,131 59.2,133.3 55.5,136.2 46.9,138.5 25.6,158.1 82.7,157 104.9,156.6 145.2,155.8 		"/>
	</g>
	<g>
		
			<linearGradient id="SVGID_00000165199446836520118800000007673304787457030078_" gradientUnits="userSpaceOnUse" x1="92.85" y1="1053" x2="92.85" y2="1020.41" gradientTransform="matrix(1 0 0 1 0 -856)">
			<stop  offset="0" style="stop-color:#C9710E"/>
			<stop  offset="1" style="stop-color:#A5500A"/>
		</linearGradient>
		<polygon style="fill:url(#SVGID_00000165199446836520118800000007673304787457030078_);" points="162.9,196.6 44.8,199.3 
			22.8,164.9 88.9,163.3 111.1,162.8 150.8,161.8 		"/>
		
			<linearGradient id="SVGID_00000117648984717195497860000012438066012134367414_" gradientUnits="userSpaceOnUse" x1="50.95" y1="1012.01" x2="50.95" y2="890.05" gradientTransform="matrix(1 0 0 1 0 -856)">
			<stop  offset="0" style="stop-color:#F30841"/>
			<stop  offset="0.52" style="stop-color:#CA021E"/>
			<stop  offset="1" style="stop-color:#9D000D"/>
		</linearGradient>
		<path style="fill:url(#SVGID_00000117648984717195497860000012438066012134367414_);" d="M47.2,32.7
			C40,74.5,32.8,116.3,25.6,158.1l21.3-19.6l8.6-2.3c2.3-1.7,4.5-3.5,6.8-5.2c4.7-33.1,9.3-66.1,14-99.2
			C66.6,32.1,56.9,32.4,47.2,32.7z"/>
		<polygon class="st18" points="178,64.1 164.6,201.2 162.9,196.6 150.8,161.8 152.7,144.1 154.9,123.7 166.3,17.7 		"/>
		
			<linearGradient id="SVGID_00000028318567907410288600000003831436182138226582_" gradientUnits="userSpaceOnUse" x1="137.95" y1="1009.21" x2="137.95" y2="884.14" gradientTransform="matrix(1 0 0 1 0 -856)">
			<stop  offset="6.000000e-02" style="stop-color:#CBF637"/>
			<stop  offset="1" style="stop-color:#54990A"/>
		</linearGradient>
		<polygon style="fill:url(#SVGID_00000028318567907410288600000003831436182138226582_);" points="130.5,25.2 121.8,91 
			119.2,110.2 116.6,129.9 134.3,136.1 137.8,147.3 145.2,155.8 147,138.4 149.2,118.1 159.3,24.3 		"/>
		<path class="st20" d="M101.1,71c-2.2,17.6-4.4,35.3-6.6,52.9c-8.3,0.2-16.7,0.4-25,0.6c4.7-33.1,9.3-66.2,14-99.3
			C89.4,40.5,95.2,55.7,101.1,71z"/>
		
			<linearGradient id="SVGID_00000020358825590912750460000016262563411546797454_" gradientUnits="userSpaceOnUse" x1="85.4" y1="1009.63" x2="85.4" y2="989.35" gradientTransform="matrix(1 0 0 1 0 -856)">
			<stop  offset="0" style="stop-color:#FDE53A"/>
			<stop  offset="1" style="stop-color:#FBD830"/>
		</linearGradient>
		<polygon style="fill:url(#SVGID_00000020358825590912750460000016262563411546797454_);" points="137.8,147.3 134.3,136.1 
			116.6,129.9 78.6,130.6 62.3,131 59.2,133.3 55.5,136.2 46.9,138.5 25.6,158.1 82.7,157 104.9,156.6 145.2,155.8 		"/>
	</g>
</g>
<g id="Shine">
	
		<linearGradient id="SVGID_00000008834025458739158000000007194227175557073838_" gradientUnits="userSpaceOnUse" x1="33.15" y1="962.71" x2="33.15" y2="942.04" gradientTransform="matrix(1 0 0 1 0 -856)">
		<stop  offset="0" style="stop-color:#EE0533"/>
		<stop  offset="1" style="stop-color:#EB032A"/>
	</linearGradient>
	<polygon style="fill:url(#SVGID_00000008834025458739158000000007194227175557073838_);" points="37.4,89.9 34.2,108.1 28.9,102.7 
		32,84.6 	"/>
	<polygon class="st23" points="69.9,122 69.5,124.5 62.3,131 64.3,116.5 	"/>
	<polygon class="st24" points="64.3,116.5 62.3,131 59.2,133.3 34.2,108.1 37.4,89.9 	"/>
	
		<linearGradient id="SVGID_00000049938407806692439890000015892320534839135933_" gradientUnits="userSpaceOnUse" x1="60.45" y1="920.9" x2="60.45" y2="889.14" gradientTransform="matrix(1 0 0 1 0 -856)">
		<stop  offset="0" style="stop-color:#AC0113"/>
		<stop  offset="1" style="stop-color:#9D000D"/>
	</linearGradient>
	<polygon style="fill:url(#SVGID_00000049938407806692439890000015892320534839135933_);" points="74.6,43.4 71.8,63.1 46.3,37.6 
		47.2,32.7 63.5,32.2 	"/>
	<polygon class="st26" points="80.2,48.9 77.4,68.7 71.8,63.1 74.6,43.4 	"/>
	
		<linearGradient id="SVGID_00000040551825357300709830000002218461624283193472_" gradientUnits="userSpaceOnUse" x1="117.75" y1="966.77" x2="117.75" y2="942.82" gradientTransform="matrix(1 0 0 1 0 -856)">
		<stop  offset="6.000000e-02" style="stop-color:#D3F12E"/>
		<stop  offset="1" style="stop-color:#C3ED27"/>
	</linearGradient>
	<polygon style="fill:url(#SVGID_00000040551825357300709830000002218461624283193472_);" points="121.8,91 119.2,110.2 
		113.7,104.6 116.3,85.6 	"/>
	<polygon class="st28" points="154.9,123.7 152.7,144.1 147,138.4 149.2,118.1 	"/>
	
		<linearGradient id="SVGID_00000106849778602833830840000014685076632537727130_" gradientUnits="userSpaceOnUse" x1="134.2" y1="992.6" x2="134.2" y2="949.9" gradientTransform="matrix(1 0 0 1 0 -856)">
		<stop  offset="6.000000e-02" style="stop-color:#89E221"/>
		<stop  offset="1" style="stop-color:#76C819"/>
	</linearGradient>
	<polygon style="fill:url(#SVGID_00000106849778602833830840000014685076632537727130_);" points="149.2,118.1 147,138.4 
		119.2,110.2 121.8,91 	"/>
	
		<linearGradient id="SVGID_00000114793640047647618030000000170951241051291020_" gradientUnits="userSpaceOnUse" x1="82.05" y1="1011.37" x2="82.05" y2="987.99" gradientTransform="matrix(1 0 0 1 0 -856)">
		<stop  offset="6.000000e-02" style="stop-color:#FCC526"/>
		<stop  offset="1" style="stop-color:#F8BA22"/>
	</linearGradient>
	<polygon style="fill:url(#SVGID_00000114793640047647618030000000170951241051291020_);" points="104.9,156.6 82.7,157 59.2,133.3 
		62.3,131 78.6,130.6 	"/>
	<polygon class="st31" points="78.6,130.6 62.3,131 69.5,124.5 72.4,124.5 	"/>
	<polygon class="st32" points="111.1,162.8 88.9,163.3 82.7,157 104.9,156.6 	"/>
</g>
</svg>